<svg width="85" height="22" viewBox="0 0 85 22" fill="none" xmlns="http://www.w3.org/2000/svg">
<path d="M12.5781 14.9697C12.0124 15.7074 11.2282 16.266 10.2256 16.6455C9.22298 17.0251 8.08431 17.2148 6.80957 17.2148C5.49902 17.2148 4.33887 16.9176 3.3291 16.3232C2.31934 15.7288 1.53874 14.8802 0.987305 13.7773C0.443034 12.6673 0.160156 11.3747 0.138672 9.89941V8.6748C0.138672 6.31152 0.704427 4.46745 1.83594 3.14258C2.96745 1.81055 4.54655 1.14453 6.57324 1.14453C8.31348 1.14453 9.69564 1.57422 10.7197 2.43359C11.7438 3.29297 12.3597 4.5319 12.5674 6.15039H9.90332C9.60254 4.26693 8.51042 3.3252 6.62695 3.3252C5.40951 3.3252 4.4821 3.76562 3.84473 4.64648C3.21452 5.52018 2.88867 6.80566 2.86719 8.50293V9.70605C2.86719 11.3962 3.22168 12.7103 3.93066 13.6484C4.64681 14.5794 5.63867 15.0449 6.90625 15.0449C8.29557 15.0449 9.28385 14.7298 9.87109 14.0996V11.0381H6.64844V8.97559H12.5781V14.9697ZM21.3975 7.76172C21.0537 7.70443 20.6992 7.67578 20.334 7.67578C19.138 7.67578 18.3324 8.13411 17.917 9.05078V17H15.3066V5.37695H17.7988L17.8633 6.67676C18.4935 5.66699 19.3672 5.16211 20.4844 5.16211C20.8568 5.16211 21.1647 5.21224 21.4082 5.3125L21.3975 7.76172ZM29.6689 17C29.5544 16.778 29.4541 16.4163 29.3682 15.915C28.5374 16.7816 27.5205 17.2148 26.3174 17.2148C25.1501 17.2148 24.1976 16.8818 23.46 16.2158C22.7223 15.5498 22.3535 14.7262 22.3535 13.7451C22.3535 12.5062 22.8118 11.5573 23.7285 10.8984C24.6523 10.2324 25.9701 9.89941 27.6816 9.89941H29.2822V9.13672C29.2822 8.53516 29.1139 8.05534 28.7773 7.69727C28.4408 7.33203 27.9287 7.14941 27.2412 7.14941C26.6468 7.14941 26.1598 7.2998 25.7803 7.60059C25.4007 7.89421 25.2109 8.27018 25.2109 8.72852H22.6006C22.6006 8.09115 22.8118 7.49674 23.2344 6.94531C23.6569 6.38672 24.2298 5.94987 24.9531 5.63477C25.6836 5.31966 26.4964 5.16211 27.3916 5.16211C28.7523 5.16211 29.8372 5.50586 30.6465 6.19336C31.4557 6.8737 31.8711 7.83333 31.8926 9.07227V14.3145C31.8926 15.36 32.0394 16.1943 32.333 16.8174V17H29.6689ZM26.8008 15.1201C27.3164 15.1201 27.7998 14.9948 28.251 14.7441C28.7093 14.4935 29.0531 14.1569 29.2822 13.7344V11.543H27.875C26.9082 11.543 26.1813 11.7113 25.6943 12.0479C25.2074 12.3844 24.9639 12.8607 24.9639 13.4766C24.9639 13.9779 25.1286 14.3789 25.458 14.6797C25.7946 14.9733 26.2422 15.1201 26.8008 15.1201ZM38.5527 13.6914L41.0127 5.37695H43.709L39.6807 17H37.4141L33.3535 5.37695H36.0605L38.5527 13.6914ZM48.124 17H45.5137V5.37695H48.124V17ZM45.3525 2.3584C45.3525 1.95736 45.4779 1.62435 45.7285 1.35938C45.9863 1.0944 46.3516 0.961914 46.8242 0.961914C47.2969 0.961914 47.6621 1.0944 47.9199 1.35938C48.1777 1.62435 48.3066 1.95736 48.3066 2.3584C48.3066 2.75228 48.1777 3.08171 47.9199 3.34668C47.6621 3.60449 47.2969 3.7334 46.8242 3.7334C46.3516 3.7334 45.9863 3.60449 45.7285 3.34668C45.4779 3.08171 45.3525 2.75228 45.3525 2.3584ZM53.7529 17H51.1426V5.37695H53.7529V17ZM50.9814 2.3584C50.9814 1.95736 51.1068 1.62435 51.3574 1.35938C51.6152 1.0944 51.9805 0.961914 52.4531 0.961914C52.9258 0.961914 53.291 1.0944 53.5488 1.35938C53.8066 1.62435 53.9355 1.95736 53.9355 2.3584C53.9355 2.75228 53.8066 3.08171 53.5488 3.34668C53.291 3.60449 52.9258 3.7334 52.4531 3.7334C51.9805 3.7334 51.6152 3.60449 51.3574 3.34668C51.1068 3.08171 50.9814 2.75228 50.9814 2.3584ZM58.2324 14.25C58.7194 14.25 59.0954 14.3896 59.3604 14.6689C59.6253 14.9411 59.7578 15.2848 59.7578 15.7002C59.7578 16.1084 59.6253 16.4486 59.3604 16.7207C59.0954 16.9857 58.7194 17.1182 58.2324 17.1182C57.7669 17.1182 57.3981 16.9857 57.126 16.7207C56.8538 16.4557 56.7178 16.1156 56.7178 15.7002C56.7178 15.2848 56.8503 14.9411 57.1152 14.6689C57.3802 14.3896 57.7526 14.25 58.2324 14.25Z" fill="#FF7008"/>
<path d="M65.1719 5.37695L65.2471 6.71973C66.1064 5.68132 67.2344 5.16211 68.6309 5.16211C71.0514 5.16211 72.2832 6.54785 72.3262 9.31934V17H69.7158V9.46973C69.7158 8.7321 69.5547 8.18783 69.2324 7.83691C68.9173 7.47884 68.3981 7.2998 67.6748 7.2998C66.6221 7.2998 65.8379 7.77604 65.3223 8.72852V17H62.7119V5.37695H65.1719ZM74.5391 11.1025C74.5391 9.29785 74.9616 7.8584 75.8066 6.78418C76.6589 5.7028 77.7868 5.16211 79.1904 5.16211C80.5153 5.16211 81.5573 5.62402 82.3164 6.54785L82.4346 5.37695H84.7871V16.6455C84.7871 18.1709 84.3109 19.374 83.3584 20.2549C82.4131 21.1357 81.1348 21.5762 79.5234 21.5762C78.6712 21.5762 77.8369 21.3971 77.0205 21.0391C76.2113 20.6882 75.5954 20.2262 75.1729 19.6533L76.4082 18.085C77.2103 19.0374 78.1986 19.5137 79.373 19.5137C80.2396 19.5137 80.9235 19.2773 81.4248 18.8047C81.9261 18.3392 82.1768 17.6517 82.1768 16.7422V15.958C81.4248 16.7959 80.4222 17.2148 79.1689 17.2148C77.8083 17.2148 76.6947 16.6742 75.8281 15.5928C74.9688 14.5114 74.5391 13.0146 74.5391 11.1025ZM77.1387 11.3281C77.1387 12.4954 77.375 13.4157 77.8477 14.0889C78.3275 14.7549 78.9899 15.0879 79.835 15.0879C80.8877 15.0879 81.6683 14.6367 82.1768 13.7344V8.62109C81.6826 7.74023 80.9092 7.2998 79.8564 7.2998C78.9971 7.2998 78.3275 7.63997 77.8477 8.32031C77.375 9.00065 77.1387 10.0033 77.1387 11.3281Z" fill="#343434"/>
</svg>
